<svg xmlns="http://www.w3.org/2000/svg" width="150" height="53" viewBox="0 0 150 53">
    <g fill="none" fill-rule="evenodd">
        <g fill="#FFFFFF" fill-rule="nonzero">
            <path d="M26.198 26.5v17.667h8.732v-8.834h8.733v8.834L34.93 53H17.465V35.333l8.733-8.833zm39.183-6.182c3.8 0 7.014 2.977 7.014 8.977 0 5.841-3.078 8.99-7.025 8.99-2.7 0-4.15-1.516-4.845-2.93l-.072-.15h-.146v9.34h-4.804v-24h4.736v2.932h.214c.643-1.42 2.03-3.159 4.928-3.159zM17.465 0l8.733 8.833v8.834L17.465 26.5H8.733v17.667H0V8.833L8.733 0h8.732zm109.091 20.318c4.495 0 8.012 2.826 8.138 8.543l.004.32v1.33h-11.795v.012c0 2.602 1.522 4.204 3.924 4.204 1.528 0 2.728-.631 3.256-1.845l.07-.177 4.443.295c-.676 3.239-3.563 5.34-7.848 5.34-5.334 0-8.593-3.454-8.593-8.988 0-5.386 3.304-9.034 8.401-9.034zm-36.975 0c3.776 0 7.206 1.678 7.347 5.652l.005.257V38h-4.556v-2.42h-.135c-.846 1.625-2.504 2.75-5.063 2.75-3.304 0-5.751-1.75-5.751-5.205 0-3.39 2.327-4.708 5.189-5.203l.433-.069.219-.03.442-.051 1.047-.105.724-.08.43-.056.387-.059c1.225-.204 1.777-.498 1.826-1.184l.004-.174c0-1.432-.936-2.262-2.571-2.262-1.65 0-2.661.78-3.032 1.862l-.047.15-4.442-.364c.665-3.182 3.394-5.182 7.544-5.182zm57.713 12.546c1.443 0 2.695 1.216 2.706 2.704-.011 1.512-1.263 2.727-2.706 2.727-1.489 0-2.718-1.215-2.707-2.727-.011-1.488 1.218-2.704 2.707-2.704zm-42.727-18.137v8.75h.147l.138-.287c.696-1.357 2.085-2.872 4.79-2.872 3.8 0 7.013 2.977 7.013 8.977 0 5.841-3.078 8.99-7.025 8.99-2.7 0-4.15-1.516-4.845-2.93l-.071-.15h-.215V38h-4.736V14.727h4.804zm-25.17 0V38h-4.803V14.727h4.804zm62.247 0V38h-4.804V14.727h4.804zM92.163 29.91c-.288.193-.86.352-1.491.482l-.482.091-.717.117-.648.094c-1.691.239-2.808.91-2.808 2.273 0 1.33 1.06 2.023 2.537 2.023 2.039 0 3.508-1.306 3.604-3.046l.005-.182V29.91zM63.848 24.17c-2.335 0-3.643 1.99-3.643 5.103 0 3.113 1.33 5.159 3.643 5.159 2.356 0 3.642-2.114 3.642-5.16 0-3.022-1.263-5.102-3.642-5.102zm44.26 0c-2.334 0-3.643 1.99-3.643 5.103 0 3.113 1.331 5.159 3.643 5.159 2.357 0 3.642-2.114 3.642-5.16 0-3.022-1.263-5.102-3.642-5.102zm18.527-.238c-2.06 0-3.53 1.486-3.718 3.382l-.014.197h7.273c-.011-2.08-1.455-3.58-3.54-3.58zM17.465 8.833H8.733v8.834h8.732V8.833z" transform="translate(-545) translate(545)"/>
        </g>
    </g>
</svg>
